<svg xmlns="http://www.w3.org/2000/svg" xmlns:xlink="http://www.w3.org/1999/xlink" width="350" zoomAndPan="magnify" viewBox="0 0 262.5 262.500001" height="350" preserveAspectRatio="xMidYMid meet" version="1.0"><defs><g/></defs><g fill="#121212" fill-opacity="1"><g transform="translate(5.050483, 203.390804)"><g><path d="M 12.671875 0 L 12.671875 -145.734375 L 71.015625 -145.734375 C 87.097656 -145.734375 99.179688 -142.234375 107.265625 -135.234375 C 115.359375 -128.242188 119.40625 -119.289062 119.40625 -108.375 C 119.40625 -99.789062 116.914062 -92.851562 111.9375 -87.5625 C 106.957031 -82.269531 100.671875 -78.769531 93.078125 -77.0625 L 93.078125 -75.640625 C 98.628906 -75.398438 103.835938 -73.832031 108.703125 -70.9375 C 113.566406 -68.050781 117.515625 -64.019531 120.546875 -58.84375 C 123.585938 -53.675781 125.109375 -47.488281 125.109375 -40.28125 C 125.109375 -32.539062 123.195312 -25.632812 119.375 -19.5625 C 115.550781 -13.488281 109.914062 -8.707031 102.46875 -5.21875 C 95.019531 -1.738281 85.84375 0 74.9375 0 Z M 43.484375 -25.1875 L 68.59375 -25.1875 C 77.226562 -25.1875 83.503906 -26.847656 87.421875 -30.171875 C 91.335938 -33.492188 93.296875 -37.882812 93.296875 -43.34375 C 93.296875 -49.363281 91.144531 -54.296875 86.84375 -58.140625 C 82.550781 -61.984375 76.707031 -63.90625 69.3125 -63.90625 L 43.484375 -63.90625 Z M 43.484375 -84.75 L 66.328125 -84.75 C 72.628906 -84.75 77.867188 -86.394531 82.046875 -89.6875 C 86.222656 -92.988281 88.3125 -97.507812 88.3125 -103.25 C 88.3125 -108.519531 86.445312 -112.765625 82.71875 -115.984375 C 79 -119.210938 73.722656 -120.828125 66.890625 -120.828125 L 43.484375 -120.828125 Z M 43.484375 -84.75 "/></g></g></g><g fill="#eb5757" fill-opacity="1"><g transform="translate(119.242115, 203.390804)"><g><path d="M 12.671875 0 L 12.671875 -145.734375 L 43.484375 -145.734375 L 43.484375 -81.484375 L 45.40625 -81.484375 L 97.84375 -145.734375 L 134.78125 -145.734375 L 80.703125 -80.484375 L 135.421875 0 L 98.5625 0 L 58.640625 -59.921875 L 43.484375 -41.421875 L 43.484375 0 Z M 12.671875 0 "/></g></g></g></svg>